<svg id="Layer_1" enable-background="new 0 0 510 510" height="512" viewBox="0 0 510 510" width="512" xmlns="http://www.w3.org/2000/svg"><g><path d="m240 359.998v60l7.5 5 7.5-5 10-30-10-30-7.5-5z" fill="#edf5ff"/><path d="m262.5 354.998-7.5 5v60l7.5 5 7.5-5c0-7.259 0-52.693 0-60z" fill="#d5e8fe"/><path d="m30 419.998v-120h180l10 15-10 15h-150v90l-15 10z" fill="#edf5ff"/><path d="m300 329.998h150v90l15 5 15-5c0-25.699 0-95.271 0-120-9.526 0-174.298 0-180 0l-5 15z" fill="#d5e8fe"/><path d="m240 209.998v60l7.5 10 7.5-10 10-30-10-30-7.5-10z" fill="#edf5ff"/><path d="m255 209.998v60l7.5 10 7.5-10c0-7.259 0-52.693 0-60l-7.5-10z" fill="#d5e8fe"/><path d="m162.093 17.336c-13.191 10.978-22.571 26.39-25.831 43.924-35.053 6.516-61.262 37.313-61.262 73.738 0 41.354 33.644 75 75 75h105l15-97.45-15-97.45c-28.065-21.014-66.281-19.923-92.907 2.238z" fill="#76e2f8"/><path d="m416.1 85.271c-11.872-13.379-28.445-22.496-47.103-24.736-17.178-40.329-65.412-57.386-104.229-36.736-2.998-3.189-6.279-6.088-9.769-8.701v194.9h105c20.678 0 39.428-8.411 53.008-21.992 28.114-28.112 29.419-73.069 3.093-102.735z" fill="#4bb9ec"/><path d="m210 419.998v90h45l10-45-10-45c-14.981 0-30.019 0-45 0z" fill="#ff884d"/><path d="m300 419.998c-14.981 0-30.019 0-45 0v90h45c0-10.889 0-79.039 0-90z" fill="#ff4d4d"/><path d="m45 419.998h45v90h-45z" fill="#736dd9"/><path d="m0 419.998h45v90h-45z" fill="#928bff"/><path d="m420 509.998h45l10-45-10-45c-14.981 0-30.019 0-45 0z" fill="#3b6bab"/><path d="m465 509.998h45c0-10.889 0-79.039 0-90-14.981 0-30.019 0-45 0z" fill="#00467d"/><path d="m210 269.998v90h45l10-45-10-45c-14.981 0-30.019 0-45 0z" fill="#c6ea4b"/><path d="m300 269.998c-14.981 0-30.019 0-45 0v90h45c0-10.889 0-79.039 0-90z" fill="#00dc7b"/></g></svg>