<svg height="512" viewBox="0 0 74 74" width="512" xmlns="http://www.w3.org/2000/svg"><g id="line_color" data-name="line color"><path d="m15.981 17.672a5.255 5.255 0 0 1 5.255 5.255v36.8a0 0 0 0 1 0 0h-10.509a0 0 0 0 1 0 0v-36.8a5.255 5.255 0 0 1 5.255-5.255z" fill="#27ccbc"/><path d="m26.491 28.4a5.255 5.255 0 0 1 5.255 5.255v26.07a0 0 0 0 1 0 0h-10.51a0 0 0 0 1 0 0v-26.071a5.255 5.255 0 0 1 5.255-5.254z" fill="#eeefee"/><path d="m47.509 34.988a5.255 5.255 0 0 1 5.255 5.255v19.482a0 0 0 0 1 0 0h-10.509a0 0 0 0 1 0 0v-19.483a5.255 5.255 0 0 1 5.254-5.254z" fill="#fe7058"/><path d="m58.019 20.681a5.255 5.255 0 0 1 5.255 5.255v33.789a0 0 0 0 1 0 0h-10.51a0 0 0 0 1 0 0v-33.789a5.255 5.255 0 0 1 5.255-5.255z" fill="#89c5cd"/><path d="m37 8.078a5.255 5.255 0 0 1 5.255 5.255v46.392a0 0 0 0 1 0 0h-10.51a0 0 0 0 1 0 0v-46.392a5.255 5.255 0 0 1 5.255-5.255z" fill="#fcd462"/><path d="m21.24 22.93v3a5.255 5.255 0 0 0 -10.51 0v-3a5.255 5.255 0 1 1 10.51 0z" fill="#21b3a9"/><path d="m31.75 33.65v2.61a5.255 5.255 0 0 0 -10.51 0v-2.61a5.255 5.255 0 0 1 10.51 0z" fill="#e1e6e9"/><path d="m52.76 40.24v2.3a5.255 5.255 0 1 0 -10.51 0v-2.3a5.255 5.255 0 0 1 10.51 0z" fill="#ea6453"/><path d="m63.27 25.94v33.79h-2.5v-31.5a5.245 5.245 0 0 0 -7.37-4.8 5.253 5.253 0 0 1 9.87 2.51z" fill="#6eaaad"/><path d="m36.88 10.86a5.2 5.2 0 0 1 5.187 4.64h.183v-2.17a5.25 5.25 0 0 0 -10.5 0v1.65a5.265 5.265 0 0 1 5.13-4.12z" fill="#f7be56"/><g fill="#323c6b"><path d="m71 65.083h-68a.5.5 0 0 1 0-1h68a.5.5 0 0 1 0 1z"/><path d="m10.131 71.762a.5.5 0 0 1 -.5-.5v-2.4a.5.5 0 0 1 1 0v2.4a.5.5 0 0 1 -.5.5z"/><path d="m17.808 70.571a.5.5 0 0 1 -.5-.5v-1.212a.5.5 0 0 1 1 0v1.212a.5.5 0 0 1 -.5.5z"/><path d="m25.485 71.762a.5.5 0 0 1 -.5-.5v-2.4a.5.5 0 0 1 1 0v2.4a.5.5 0 0 1 -.5.5z"/><path d="m33.162 70.571a.5.5 0 0 1 -.5-.5v-1.212a.5.5 0 0 1 1 0v1.212a.5.5 0 0 1 -.5.5z"/><path d="m40.838 71.762a.5.5 0 0 1 -.5-.5v-2.4a.5.5 0 0 1 1 0v2.4a.5.5 0 0 1 -.5.5z"/><path d="m48.515 70.571a.5.5 0 0 1 -.5-.5v-1.212a.5.5 0 0 1 1 0v1.212a.5.5 0 0 1 -.5.5z"/><path d="m56.192 71.762a.5.5 0 0 1 -.5-.5v-2.4a.5.5 0 0 1 1 0v2.4a.5.5 0 0 1 -.5.5z"/><path d="m63.869 70.571a.5.5 0 0 1 -.5-.5v-1.212a.5.5 0 0 1 1 0v1.212a.5.5 0 0 1 -.5.5z"/><path d="m65.969 24.249a.5.5 0 0 1 -.481-.367 7.773 7.773 0 0 0 -7.469-5.7.5.5 0 0 1 0-1 8.775 8.775 0 0 1 8.433 6.435.5.5 0 0 1 -.482.633z"/><path d="m66.273 27.343a.5.5 0 0 1 -.5-.5v-.469a.5.5 0 0 1 1 0v.469a.5.5 0 0 1 -.5.5z"/><path d="m28.745 16.19a.5.5 0 0 1 -.5-.5v-.33a.5.5 0 0 1 1 0v.331a.5.5 0 0 1 -.5.499z"/><path d="m28.745 13.833a.5.5 0 0 1 -.5-.5 8.709 8.709 0 0 1 8.49-8.742.515.515 0 0 1 .515.485.5.5 0 0 1 -.485.515 7.713 7.713 0 0 0 -7.52 7.742.5.5 0 0 1 -.5.5z"/></g><path d="m35.5 49.653a.65.65 0 0 1 -.65-.65v-9.461a.65.65 0 1 1 1.3 0v9.458a.65.65 0 0 1 -.65.653z" fill="#fff"/><path d="m35.5 37.337a.65.65 0 0 1 -.65-.65v-.979a.65.65 0 0 1 1.3 0v.979a.65.65 0 0 1 -.65.65z" fill="#fff"/><path d="m21.236 60.225h-10.509a.5.5 0 0 1 -.5-.5v-36.8a5.755 5.755 0 0 1 11.509 0v36.8a.5.5 0 0 1 -.5.5zm-10.009-1h9.509v-36.3a4.755 4.755 0 0 0 -9.509 0z" fill="#323c6b"/><path d="m31.745 60.225h-10.509a.5.5 0 0 1 -.5-.5v-26.071a5.755 5.755 0 1 1 11.509 0v26.071a.5.5 0 0 1 -.5.5zm-10.009-1h9.509v-25.571a4.755 4.755 0 1 0 -9.509 0z" fill="#323c6b"/><path d="m52.764 60.225h-10.509a.5.5 0 0 1 -.5-.5v-19.483a5.755 5.755 0 0 1 11.509 0v19.483a.5.5 0 0 1 -.5.5zm-10.009-1h9.509v-18.983a4.755 4.755 0 0 0 -9.509 0z" fill="#323c6b"/><path d="m63.273 60.225h-10.509a.5.5 0 0 1 -.5-.5v-33.789a5.755 5.755 0 1 1 11.509 0v33.789a.5.5 0 0 1 -.5.5zm-10.009-1h9.509v-33.289a4.755 4.755 0 1 0 -9.509 0z" fill="#323c6b"/><path d="m42.255 60.225h-10.51a.5.5 0 0 1 -.5-.5v-46.392a5.755 5.755 0 1 1 11.51 0v46.392a.5.5 0 0 1 -.5.5zm-10.01-1h9.51v-45.892a4.755 4.755 0 1 0 -9.51 0z" fill="#323c6b"/></g></svg>