<svg height="480.08591pt" viewBox="0 0 480.08591 480.08591" width="480.08591pt" xmlns="http://www.w3.org/2000/svg"><path d="m336.121094 143.964844c25.554687 25.441406 39.921875 60.015625 39.921875 96.078125s-14.367188 70.636719-39.921875 96.078125l68 68c90.5625-90.640625 90.5625-237.515625 0-328.15625zm0 0" fill="#ffcd00"/><path d="m240.042969 376.042969v96c31.195312.046875 62.082031-6.210938 90.800781-18.398438l-37.746094-88.410156c-16.773437 7.144531-34.820312 10.824219-53.054687 10.808594zm0 0" fill="#ffbcab"/><path d="m336.121094 336.121094c-12.335938 12.378906-26.945313 22.261718-43.023438 29.113281l37.746094 88.410156c27.371094-11.652343 52.25-28.457031 73.277344-49.496093zm0 0" fill="#ff6243"/><path d="m104.042969 240.042969c-.015625-36.0625 14.351562-70.644531 39.921875-96.078125l-68-68c-90.5625 90.640625-90.5625 237.515625 0 328.15625l68-68c-25.570313-25.433594-39.9375-60.015625-39.921875-96.078125zm0 0" fill="#1a6fb0"/><path d="m336.121094 143.964844c-45.816406-45.621094-117.472656-52.542969-171.171875-16.53125-53.699219 36.007812-74.503907 104.925781-49.695313 164.632812 24.804688 59.707032 88.320313 93.589844 151.730469 80.941406 63.40625-12.648437 109.058594-68.308593 109.058594-132.964843.015625-36.0625-14.351563-70.644531-39.921875-96.078125zm0 0" fill="#f1f2f2"/><path d="m143.964844 336.121094-68 68c14.535156 14.511718 30.925781 27.03125 48.75 37.234375l46.753906-84.097657c-10.035156-5.839843-19.277344-12.941406-27.503906-21.136718zm0 0" fill="#ab2300"/><path d="m171.46875 357.257812-46.753906 84.097657c17.476562 10.042969 36.191406 17.75 55.671875 22.917969l24.183593-93.03125c-11.601562-3.183594-22.730468-7.886719-33.101562-13.984376zm0 0" fill="#ffcd00"/><path d="m204.570312 371.242188-24.183593 93.03125c19.464843 5.164062 39.519531 7.773437 59.65625 7.769531v-96c-11.984375-.003907-23.917969-1.617188-35.472657-4.800781zm0 0" fill="#00665a"/><path d="m240.042969 104.042969c36.0625-.015625 70.644531 14.351562 96.078125 39.921875l68-68c-90.640625-90.5625-237.515625-90.5625-328.15625 0l68 68c25.433594-25.570313 60.015625-39.9375 96.078125-39.921875zm0 0" fill="#00665a"/><g fill="#231f20"><path d="m409.777344 70.308594c-93.742188-93.746094-245.726563-93.746094-339.46875 0-93.746094 93.742187-93.746094 245.726562 0 339.46875 93.742187 93.746094 245.726562 93.746094 339.46875 0 93.746094-93.742188 93.746094-245.726563 0-339.46875zm-5.789063 322.398437-56.800781-56.800781c49.164062-54.417969 49.164062-137.214844 0-191.632812l56.800781-56.796876c80.054688 86 80.054688 219.246094 0 305.246094zm-69.066406 50.398438-31.382813-73.941407c11.722657-5.820312 22.597657-13.214843 32.320313-21.976562l56.800781 56.800781c-17.082031 15.976563-36.5625 29.171875-57.738281 39.101563zm-199.941406-5.070313 40.152343-69.542968c6.441407 3.273437 13.128907 6.050781 20 8.304687l-20.800781 77.527344c-13.613281-4.15625-26.792969-9.617188-39.351562-16.304688zm-47.5625-34.03125 56.800781-56.800781c5.339844 4.855469 11.035156 9.308594 17.039062 13.3125l-40.09375 69.4375c-12.042968-7.566406-23.34375-16.261719-33.746093-25.964844zm62.226562-254.359375c32.066407-33.417969 79.691407-46.882812 124.507813-35.203125 44.8125 11.679688 79.8125 46.679688 91.492187 91.492188 11.679688 44.816406-1.785156 92.441406-35.203125 124.507812-23.9375 24.046875-56.46875 37.5625-90.398437 37.5625-33.929688 0-66.460938-13.515625-90.398438-37.5625-24.046875-23.9375-37.5625-56.46875-37.5625-90.398437 0-33.929688 13.515625-66.460938 37.5625-90.398438zm60.925781 231.359375c7.082032 1.417969 14.257813 2.304688 21.472657 2.648438v80.199218c-14.214844-.492187-28.347657-2.328124-42.214844-5.488281zm37.472657 2.648438c13.929687-.742188 27.675781-3.523438 40.800781-8.25l31.367188 73.898437c-23.085938 8.804688-47.472657 13.722657-72.167969 14.550781zm144.625-307.554688-56.800781 56.800782c-54.417969-49.164063-137.214844-49.164063-191.632813 0l-56.800781-56.800782c86.003906-80.054687 219.246094-80.054687 305.25 0zm-316.570313 11.320313 56.800782 56.800781c-49.164063 54.417969-49.164063 137.214844 0 191.632812l-56.800782 56.800782c-80.054687-86.003906-80.054687-219.246094 0-305.25zm0 0"/><path d="m136.042969 248.042969c4.417969 0 8-3.582031 8-8 .058593-52.996094 43.003906-95.941407 96-96 4.417969 0 8-3.582031 8-8s-3.582031-8-8-8c-61.828125.066406-111.933594 50.171875-112 112 0 4.417969 3.582031 8 8 8zm0 0"/></g></svg>